ply
format ascii 1.0
element vertex 9
property float x
property float y
property float z
property float f_dc_0
property float f_dc_1
property float f_dc_2
property float f_rest_0
property float f_rest_1
property float f_rest_2
property float f_rest_3
property float f_rest_4
property float f_rest_5
property float f_rest_6
property float f_rest_7
property float f_rest_8
property float f_rest_9
property float f_rest_10
property float f_rest_11
property float f_rest_12
property float f_rest_13
property float f_rest_14
property float f_rest_15
property float f_rest_16
property float f_rest_17
property float f_rest_18
property float f_rest_19
property float f_rest_20
property float f_rest_21
property float f_rest_22
property float f_rest_23
property float f_rest_24
property float f_rest_25
property float f_rest_26
property float f_rest_27
property float f_rest_28
property float f_rest_29
property float f_rest_30
property float f_rest_31
property float f_rest_32
property float f_rest_33
property float f_rest_34
property float f_rest_35
property float f_rest_36
property float f_rest_37
property float f_rest_38
property float f_rest_39
property float f_rest_40
property float f_rest_41
property float f_rest_42
property float f_rest_43
property float f_rest_44
property float opacity
property float scale_0
property float scale_1
property float scale_2
property float rot_0
property float rot_1
property float rot_2
property float rot_3
end_header
-50.0 50.0 50.0 -1.417963 -1.417963 -1.417963 0.0 0.0 0.0 0.0 0.0 0.0 0.0 0.0 0.0 0.0 0.0 0.0 0.0 0.0 0.0 0.0 0.0 0.0 0.0 0.0 0.0 0.0 0.0 0.0 0.0 0.0 0.0 0.0 0.0 0.0 0.0 0.0 0.0 0.0 0.0 0.0 0.0 0.0 0.0 0.0 0.0 0.0 0.0 0.0 0.0 20.0 1.0 1.0 1.0 0.0 1.0 0.0 0.0
50.0 50.0 50.0 1.7724539 -1.7724539 -1.7724539 0.0 0.0 0.0 0.0 0.0 0.0 0.0 0.0 0.0 0.0 0.0 0.0 0.0 0.0 0.0 0.0 0.0 0.0 0.0 0.0 0.0 0.0 0.0 0.0 0.0 0.0 0.0 0.0 0.0 0.0 0.0 0.0 0.0 0.0 0.0 0.0 0.0 0.0 0.0 0.0 0.0 0.0 0.0 0.0 0.0 20.0 1.0 1.0 1.0 0.0 1.0 0.0 0.0
-50.0 -50.0 50.0 -1.7724539 1.7724539 -1.7724539 0.0 0.0 0.0 0.0 0.0 0.0 0.0 0.0 0.0 0.0 0.0 0.0 0.0 0.0 0.0 0.0 0.0 0.0 0.0 0.0 0.0 0.0 0.0 0.0 0.0 0.0 0.0 0.0 0.0 0.0 0.0 0.0 0.0 0.0 0.0 0.0 0.0 0.0 0.0 0.0 0.0 0.0 0.0 0.0 0.0 20.0 1.0 1.0 1.0 0.0 1.0 0.0 0.0
50.0 -50.0 50.0 1.7724539 1.7724539 -1.7724539 0.0 0.0 0.0 0.0 0.0 0.0 0.0 0.0 0.0 0.0 0.0 0.0 0.0 0.0 0.0 0.0 0.0 0.0 0.0 0.0 0.0 0.0 0.0 0.0 0.0 0.0 0.0 0.0 0.0 0.0 0.0 0.0 0.0 0.0 0.0 0.0 0.0 0.0 0.0 0.0 0.0 0.0 0.0 0.0 0.0 20.0 1.0 1.0 1.0 0.0 1.0 0.0 0.0
-50.0 50.0 -50.0 -1.7724539 -1.7724539 1.7724539 0.0 0.0 0.0 0.0 0.0 0.0 0.0 0.0 0.0 0.0 0.0 0.0 0.0 0.0 0.0 0.0 0.0 0.0 0.0 0.0 0.0 0.0 0.0 0.0 0.0 0.0 0.0 0.0 0.0 0.0 0.0 0.0 0.0 0.0 0.0 0.0 0.0 0.0 0.0 0.0 0.0 0.0 0.0 0.0 0.0 20.0 1.0 1.0 1.0 0.0 1.0 0.0 0.0
50.0 50.0 -50.0 1.7724539 -1.7724539 1.7724539 0.0 0.0 0.0 0.0 0.0 0.0 0.0 0.0 0.0 0.0 0.0 0.0 0.0 0.0 0.0 0.0 0.0 0.0 0.0 0.0 0.0 0.0 0.0 0.0 0.0 0.0 0.0 0.0 0.0 0.0 0.0 0.0 0.0 0.0 0.0 0.0 0.0 0.0 0.0 0.0 0.0 0.0 0.0 0.0 0.0 20.0 1.0 1.0 1.0 0.0 1.0 0.0 0.0
-50.0 -50.0 -50.0 -1.7724539 1.7724539 1.7724539 0.0 0.0 0.0 0.0 0.0 0.0 0.0 0.0 0.0 0.0 0.0 0.0 0.0 0.0 0.0 0.0 0.0 0.0 0.0 0.0 0.0 0.0 0.0 0.0 0.0 0.0 0.0 0.0 0.0 0.0 0.0 0.0 0.0 0.0 0.0 0.0 0.0 0.0 0.0 0.0 0.0 0.0 0.0 0.0 0.0 20.0 1.0 1.0 1.0 0.0 1.0 0.0 0.0
50.0 -50.0 -50.0 1.7724539 1.7724539 1.7724539 0.0 0.0 0.0 0.0 0.0 0.0 0.0 0.0 0.0 0.0 0.0 0.0 0.0 0.0 0.0 0.0 0.0 0.0 0.0 0.0 0.0 0.0 0.0 0.0 0.0 0.0 0.0 0.0 0.0 0.0 0.0 0.0 0.0 0.0 0.0 0.0 0.0 0.0 0.0 0.0 0.0 0.0 0.0 0.0 0.0 20.0 1.0 1.0 1.0 0.0 1.0 0.0 0.0
0.0 0.0 0.0 0.19689117 0.19701743 0.19680822 0.6390529 -0.6387493 1.0728636 -0.22888654 -2.5718828E-5 -0.044030476 0.22888164 0.07618986 -0.27393076 -1.2853824 -0.05738138 -0.25203604 0.019920208 0.122338615 -0.025633937 -1.0730615 -0.6386066 -0.6389344 -0.22883302 -0.228876 -0.04397373 5.9075355E-6 -0.076371565 -0.025894197 -1.3224151 -0.019969601 -0.25172344 0.05733828 -0.12225649 -0.2737727 0.6388169 1.0728855 -0.6387103 5.7882003E-6 -0.22883278 0.08799531 0.2290625 -2.1415442E-5 -0.12407954 -1.3605541 -0.2507759 -0.03241969 0.2508139 -8.455848E-6 -0.12410133 20.0 3.0 3.0 3.0 0.0 1.0 0.0 0.0
